<svg viewBox="0 0 800 800" xmlns="http://www.w3.org/2000/svg"><path d="M453.6691239558078,290.64661933092975 L553.0153226998266,233.2986251322348 M453.6691239558078,290.64661933092975 L464.4521916936201,298.9833686761986 M464.4521916936201,298.9833686761986 L472.6015221450241,309.7719188119296 M472.6015221450241,309.7719188119296 L478.06061601758677,322.2880176494908 M478.06061601758677,322.2880176494908 L481.0661761498668,335.79818719300044 M481.0661761498668,335.79818719300044 L481.9526734994814,354.36521743695215 M481.9526734994814,354.36521743695215 L478.56060058299624,381.8700595936208 M478.56060058299624,381.8700595936208 L470.14690876001225,412.5943217122705 M470.14690876001225,412.5943217122705 L458.638850046221,442.1111296038383 M553.0153226998266,233.2986251322348 L529.2315253039898,222.9102552066101 M529.2315253039898,222.9102552066101 L506.82986823803253,219.79486165271845 M506.82986823803253,219.79486165271845 L487.1122875952873,224.13297084602485 M487.1122875952873,224.13297084602485 L471.22449144266966,235.67185231390843 M471.22449144266966,235.67185231390843 L460.08945759863605,253.74034689430167 M460.08945759863605,253.74034689430167 L454.3538328212949,277.2880063060684 M454.3538328212949,277.2880063060684 L454.3504930282254,304.946229194239 M454.3504930282254,304.946229194239 L460.0792935926386,335.10781105751823 M460.0792935926386,335.10781105751823 L471.2071553145579,366.02031894539647 M471.2071553145579,366.02031894539647 L487.08746331941484,395.88783374743645 M487.08746331941484,395.88783374743645 L506.7975931699517,422.9751511017148 M506.7975931699517,422.9751511017148 L529.1925099011871,445.7085470477535 M529.1925099011871,445.7085470477535 L552.9711761899376,462.7670834471468 M552.9711761899376,462.7670834471468 L576.7520732785929,473.1593174898727 M576.7520732785929,473.1593174898727 L599.1533907315372,476.2809743706055 M599.1533907315372,476.2809743706055 L618.8732702563448,471.9500928620026 M618.8732702563448,471.9500928620026 L634.7654771415545,460.41774766424953 M634.7654771415545,460.41774766424953 L645.9060231200001,442.3536005541408 M645.9060231200001,442.3536005541408 L651.6469986717382,418.80710386253327 M651.6469986717382,418.80710386253327 L651.6543020820757,391.14659257892765 M651.6543020820757,391.14659257892765 L645.9271699604485,360.97979544862915 M645.9271699604485,360.97979544862915 L634.7982992870094,330.0603401765678 M634.7982992870094,330.0603401765678 L618.9145360719597,300.1857374331629 M618.9145360719597,300.1857374331629 L599.1992963033503,273.092815346486 M599.1992963033503,273.092815346486 L576.7987855646137,250.35658185102227 M576.7987855646137,250.35658185102227 L553.0153226998266,233.2986251322348 M458.638850046221,442.1111296038383 L474.1176615533776,460.65703162243585 M474.1176615533776,460.65703162243585 L483.60741923952764,480.50104670621914 M483.60741923952764,480.50104670621914 L486.003184549102,490.71130034783226 M486.003184549102,490.71130034783226 L486.8029240478555,501.0043924998159 M486.8029240478555,501.0043924998159 L484.0540136455687,520.0134238091721 M484.0540136455687,520.0134238091721 L475.8889021144903,538.4966343968299 M475.8889021144903,538.4966343968299 L462.5334070253074,555.9433064227522 M462.5334070253074,555.9433064227522 L444.35678223834384,571.8713927415199 M444.35678223834384,571.8713927415199 L421.86142887548806,585.840836299067 M421.86142887548806,585.840836299067 L395.668998438145,597.4657370765602 M188.68981057714984,443.63568421318644 L260.58231181646727,366.6865350082814 M260.58231181646727,366.6865350082814 L329.28331457826374,315.03085256292024 M329.28331457826374,315.03085256292024 L366.4489024105582,295.7723786926074 M366.4489024105582,295.7723786926074 L397.20910490619656,285.6407818539542 M397.20910490619656,285.6407818539542 L420.9579069111237,282.7768249091423 M420.9579069111237,282.7768249091423 L437.97241589644966,284.57226247084964 M437.97241589644966,284.57226247084964 L446.15249196658885,287.06377222604664 M446.15249196658885,287.06377222604664 L453.6691239558078,290.64661933092975 M395.668998438145,597.4657370765602 L377.03267670225813,599.3515055349665 M377.03267670225813,599.3515055349665 L355.84289344922746,598.9984786090877 M355.84289344922746,598.9984786090877 L337.70268753036896,597.7758927439286 M337.70268753036896,597.7758927439286 L321.1762473176647,596.6162506472217 M188.68981057714984,443.63568421318644 L223.79740977506572,448.60632243391296 M223.79740977506572,448.60632243391296 L239.51405860642308,454.6385298868274 M239.51405860642308,454.6385298868274 L253.97037452579525,464.89884799598536 M253.97037452579525,464.89884799598536 L266.22014877275046,477.00722811228303 M266.22014877275046,477.00722811228303 L277.841117513927,490.9918356271957 M277.841117513927,490.9918356271957 L288.73164003750344,506.06297292386216 M288.73164003750344,506.06297292386216 L298.652994420455,521.4735689759639 M298.652994420455,521.4735689759639 L307.2781038558661,536.5554912895727 M307.2781038558661,536.5554912895727 L314.2629960500669,550.7701140438081 M314.2629960500669,550.7701140438081 L319.31125419293033,563.726010445513 M319.31125419293033,563.726010445513 L322.24501349779933,575.1622430735549 M322.24501349779933,575.1622430735549 L323.0996667434294,584.9428936465862 M323.0996667434294,584.9428936465862 L322.5398030616709,591.236742535098 M322.5398030616709,591.236742535098 L321.1762473176647,596.6162506472217 M453.6691239558078,290.64661933092975 L437.5040385613888,297.6647411690851 M437.5040385613888,297.6647411690851 L422.85108114083516,299.65137497439343 M422.85108114083516,299.65137497439343 L410.72768977918304,297.1792578137348 M410.72768977918304,297.1792578137348 L400.6226121048412,290.5769890072949 M400.6226121048412,290.5769890072949 L393.2487675031736,280.36624324581 M393.2487675031736,280.36624324581 L388.8999700975407,267.5360648922394 M388.8999700975407,267.5360648922394 L387.78812671337573,260.0678820977114 M387.78812671337573,260.0678820977114 L387.43464714430314,252.3721272094686 M387.43464714430314,252.3721272094686 L399.60480464218426,261.93197194755476 M399.60480464218426,261.93197194755476 L409.5097085099877,274.88963501780904 M409.5097085099877,274.88963501780904 L417.0064033043192,290.20391575384957 M417.0064033043192,290.20391575384957 L422.29014177136696,306.8402289538651 M422.29014177136696,306.8402289538651 L426.52918280999234,329.73708661822747 M426.52918280999234,329.73708661822747 L428.1281639340666,347.4850110104717 M428.1281639340666,347.4850110104717 L428.6053126286665,364.9470465694019 M458.638850046221,442.1111296038383 L444.87556956511025,424.84135395917264 M444.87556956511025,424.84135395917264 L433.64313321824307,399.38320141883906 M433.64313321824307,399.38320141883906 L428.6053126286665,364.9470465694019 M553.0134829681583,242.86133780651878 L531.2117801357654,233.33851583822576 M531.2117801357654,233.33851583822576 L510.67694342395885,230.4825037033438 M510.67694342395885,230.4825037033438 L492.6024033978131,234.4588303784246 M492.6024033978131,234.4588303784246 L478.0384283789118,245.03588684590832 M478.0384283789118,245.03588684590832 L467.8310923284446,261.5984999249462 M467.8310923284446,261.5984999249462 L462.5732312990342,283.1838111386687 M462.5732312990342,283.1838111386687 L462.5700184819774,308.53726952300946 M462.5700184819774,308.53726952300946 L467.8213559647793,336.18558729207257 M467.8213559647793,336.18558729207257 L478.0219456030758,364.52232346652534 M478.0219456030758,364.52232346652534 L492.57901997068507,391.9011398643509 M492.57901997068507,391.9011398643509 L510.64683741245017,416.73140125764735 M510.64683741245017,416.73140125764735 L531.1757220599521,437.5704574333436 M531.1757220599521,437.5704574333436 L552.9730153341383,453.20742436197963 M552.9730153341383,453.20742436197963 L574.7722811028368,462.7334932612746 M574.7722811028368,462.7334932612746 L595.3068324454216,465.59476833088064 M595.3068324454216,465.59476833088064 L613.3833041715193,461.6245149199343 M613.3833041715193,461.6245149199343 L627.9509854294101,451.0529507327171 M627.9509854294101,451.0529507327171 L638.1629532059321,434.4939907385204 M638.1629532059321,434.4939907385204 L643.4253103727763,412.90965653283496 M643.4253103727763,412.90965653283496 L643.431853729526,387.5542752605494 M643.431853729526,387.5542752605494 L638.1819182021708,359.9015752179865 M638.1819182021708,359.9015752179865 L627.980480760392,331.55900130994587 M627.980480760392,331.55900130994587 L613.4205030581631,304.1742290747151 M613.4205030581631,304.1742290747151 L595.3483918653145,279.3392581480757 M595.3483918653145,279.3392581480757 L574.8148066985174,258.49781764174327 M574.8148066985174,258.49781764174327 L553.0134829681583,242.86133780651878 M458.638850046221,442.1111296038383 L479.5761976024752,449.8730496831091 M479.5761976024752,449.8730496831091 L481.7207465131521,457.65784980963616 M481.7207465131521,457.65784980963616 L476.7987977718109,465.27083570016737 M476.7987977718109,465.27083570016737 L468.3620755533241,472.47014796247333 M468.3620755533241,472.47014796247333 L457.9624697330772,479.3601482966064 M457.9624697330772,479.3601482966064 L445.04359391576486,486.66565287485844 M445.04359391576486,486.66565287485844 L427.8922952619208,495.1691870660725 M427.8922952619208,495.1691870660725 L409.41466577195365,503.28903938476776 M409.41466577195365,503.28903938476776 L390.72817578310463,510.63884674247004 M390.72817578310463,510.63884674247004 L366.6859448949896,519.0358552687658 M366.6859448949896,519.0358552687658 L333.5546924207127,529.0413317013781 M333.5546924207127,529.0413317013781 L289.48242394336523,540.2718461434445 M289.48242394336523,540.2718461434445 L236.07916635408924,551.2995648965973 M236.07916635408924,551.2995648965973 L188.673248277372,558.3826630346804 M486.8029240478555,501.0043924998159 L652.476534732388,596.640156932076 M223.78334702903965,599.2680470554603 L188.673248277372,558.3826630346804 M652.476534732388,596.640156932076 L649.5821727762811,625.7699377945304 M649.5821727762811,625.7699377945304 L641.0819785269441,656.541307949756 M641.0819785269441,656.541307949756 L627.4699776122324,687.1664800141838 M627.4699776122324,687.1664800141838 L609.5370463433732,715.8662633991523 M609.5370463433732,715.8662633991523 L588.3250134935145,740.9732686891535 M588.3250134935145,740.9732686891535 L565.0661704235977,761.02875331227 M565.0661704235977,761.02875331227 L541.111776883424,774.8672668297613 M541.111776883424,774.8672668297613 L517.853640486688,781.6843672315617 M517.853640486688,781.6843672315617 L496.64329483683014,781.0834242691725 M496.64329483683014,781.0834242691725 L478.71349098417454,773.0987591054624 M478.71349098417454,773.0987591054624 L465.10654878866956,758.1938157889559 M465.10654878866956,758.1938157889559 L456.61368442801756,737.2343288497149 M456.61368442801756,737.2343288497149 L453.7289472169766,711.4381514157684 M453.7289472169766,711.4381514157684 L456.6204097100963,682.3045049765202 M456.6204097100963,682.3045049765202 L465.12026668189424,651.526867447345 M465.12026668189424,651.526867447345 L478.73456977247235,620.8944619920235 M478.73456977247235,620.8944619920235 L496.67191527104626,592.1881362786727 M496.67191527104626,592.1881362786727 L517.8894631558867,567.0767784967654 M517.8894631558867,567.0767784967654 L541.1536586382416,547.0201283180554 M541.1536586382416,547.0201283180554 L565.1120157956293,533.1839031960914 M565.1120157956293,533.1839031960914 L588.371818997048,526.372020896849 M588.371818997048,526.372020896849 L609.5811527948536,526.9799162649767 M609.5811527948536,526.9799162649767 L627.5074979402975,534.9716754281237 M627.5074979402975,534.9716754281237 L641.1093269240064,549.8822291830804 M641.1093269240064,549.8822291830804 L649.5965949416712,570.8445577188781 M649.5965949416712,570.8445577188781 L652.476534732388,596.640156932076 M321.17808726651333,634.8684299709251 L322.23197543132824,638.5726904339683 M322.23197543132824,638.5726904339683 L322.6593409086312,651.2080113468619 M322.6593409086312,651.2080113468619 L320.62379311527536,657.5105005945378 M320.62379311527536,657.5105005945378 L316.8761425214217,662.760388014951 M316.8761425214217,662.760388014951 L311.49075681387484,666.3468826944221 M311.49075681387484,666.3468826944221 L303.0455255979419,667.7681764606749 M303.0455255979419,667.7681764606749 L291.8579252909244,665.045808407115 M291.8579252909244,665.045808407115 L280.1550698945483,658.3205878782975 M280.1550698945483,658.3205878782975 L268.8231280576022,648.970116528075 M268.8231280576022,648.970116528075 L256.8703205486209,636.8986228031657 M256.8703205486209,636.8986228031657 L244.26316677357312,622.7091509662008 M244.26316677357312,622.7091509662008 L233.53942102798857,610.319970614546 M233.53942102798857,610.319970614546 L223.78334702903965,599.2680470554603 M395.668998438145,597.4657370765602 L377.0345799984344,614.936440959312 M377.0345799984344,614.936440959312 L355.8455656288681,626.8842721082575 M355.8455656288681,626.8842721082575 L337.70516399237874,632.6021090236349 M337.70516399237874,632.6021090236349 L321.17808726651333,634.8684299709251 M188.68981057714984,443.63568421318644 L188.68981057714984,443.63568421318644 M188.68981057714984,443.63568421318644 L234.8454273350601,351.82222944336445 M234.8454273350601,351.82222944336445 L283.37640486587685,288.51033330484603 M283.37640486587685,288.51033330484603 L311.5832869588472,264.0726477593072 M311.5832869588472,264.0726477593072 L336.43822105546303,250.52632592678452 M336.43822105546303,250.52632592678452 L356.847840479609,245.73113873447414 M356.847840479609,245.73113873447414 L372.3055927715964,246.6261268104318 M372.3055927715964,246.6261268104318 L380.06094758121793,248.87195989651983 M380.06094758121793,248.87195989651983 L387.43464714430314,252.3721272094686 M321.1762473176647,596.6162506472217 L327.7162069658074,601.3515066551788 M327.7162069658074,601.3515066551788 L332.2675268565174,606.808413034027 M332.2675268565174,606.808413034027 L334.6019494665458,612.7133647322282 M334.6019494665458,612.7133647322282 L334.60235889375144,618.7702800523209 M334.60235889375144,618.7702800523209 L332.26867404581924,624.6754369100572 M332.26867404581924,624.6754369100572 L327.71786470240335,630.1327129736313 M327.71786470240335,630.1327129736313 L321.17808726651333,634.8684299709251 M188.68981057714984,443.63568421318644 L188.68981057714984,443.63568421318644 M188.68981057714984,443.63568421318644 L210.56313485182648,471.57216538292374 M223.79740977506572,448.60632243391296 L217.74475056577387,460.4152574724582 M217.74475056577387,460.4152574724582 L210.56313485182648,471.57216538292374 M210.56313485182648,471.57216538292374 L220.9635614674268,477.59389692906603 M220.9635614674268,477.59389692906603 L229.44063595658497,485.6828069564141 M229.44063595658497,485.6828069564141 L237.75006670568973,495.2739583982757 M237.75006670568973,495.2739583982757 L246.11283393208652,505.82538470670886 M246.11283393208652,505.82538470670886 L254.62431729297617,516.9045761100224 M254.62431729297617,516.9045761100224 L263.281605679257,528.1402732117335 M263.281605679257,528.1402732117335 L274.91102437620566,542.8001798338532 M274.91102437620566,542.8001798338532 L287.72973090199554,558.1228668472417 M287.72973090199554,558.1228668472417 L298.50975237223156,570.3038195089621 M298.50975237223156,570.3038195089621 L309.8388035898255,582.715974352762 M309.8388035898255,582.715974352762 L316.2381580896853,590.0458219964344 M316.2381580896853,590.0458219964344 L321.1762473176647,596.6162506472217 M321.1762473176647,596.6162506472217 L321.1762473176647,596.6162506472217 M210.56313485182648,471.57216538292374 L184.28508549508035,484.5446063258738 M184.28508549508035,484.5446063258738 L164.2874413406983,500.82922139631665 M164.2874413406983,500.82922139631665 L151.78102270543616,519.4405860595598 M151.78102270543616,519.4405860595598 L147.52346526761204,539.2523227321894 M147.52346526761204,539.2523227321894 L151.7731798378964,559.0651996111551 M151.7731798378964,559.0651996111551 L164.2736259799767,577.6797129754591 M164.2736259799767,577.6797129754591 L184.26859233773058,593.9687343381338 M184.26859233773058,593.9687343381338 L210.547897199371,606.9457883473934 M210.547897199371,606.9457883473934 L188.673248277372,558.3826630346804 M428.6053126286665,364.9470465694019 L426.4427807240219,357.4001708158451 M426.4427807240219,357.4001708158451 L419.30682193128416,354.60127604026195 M419.30682193128416,354.60127604026195 L409.5145831070314,356.5413039459942 M409.5145831070314,356.5413039459942 L399.148971792026,360.86236165858037 M399.148971792026,360.86236165858037 L387.3685253954379,367.1509064496289 M387.3685253954379,367.1509064496289 L373.99608816072936,375.39631412325326 M373.99608816072936,375.39631412325326 L359.7721491416471,385.1229814754949 M359.7721491416471,385.1229814754949 L345.4568384776675,395.760825883652 M345.4568384776675,395.760825883652 L331.626973337921,406.7923356048773 M331.626973337921,406.7923356048773 L314.464742926633,421.4761851233411 M314.464742926633,421.4761851233411 L291.6603961023038,442.5932301084587 M291.6603961023038,442.5932301084587 L262.59652206727634,471.8443567695599 M262.59652206727634,471.8443567695599 L226.07329978952617,512.0132944932302 M226.07329978952617,512.0132944932302 L206.16640763645893,535.8245957486864 M206.16640763645893,535.8245957486864 L188.673248277372,558.3826630346804 M387.44983325959873,41.92083799406731 L387.43464714430314,252.3721272094686 M387.44983325959873,41.92083799406731 L408.3509594443144,57.311667697476764 M408.3509594443144,57.311667697476764 L422.26220092574226,75.14178108386312 M422.26220092574226,75.14178108386312 L428.3746295962675,94.37524923419602 M428.3746295962675,94.37524923419602 L426.3323818989312,113.89444114094994 M426.3323818989312,113.89444114094994 L416.2534679782459,132.56491184175724 M416.2534679782459,132.56491184175724 L398.72308572860555,149.30138690427984 M398.72308572860555,149.30138690427984 L374.75972020934023,163.13085829116764 M374.75972020934023,163.13085829116764 L345.756039178358,173.24921367589482 M345.756039178358,173.24921367589482 L313.3979436571156,179.06806552107508 M313.3979436571156,179.06806552107508 L279.56651339016145,180.2490174007442 M279.56651339016145,180.2490174007442 L246.22860463678728,176.72339223233985 M246.22860463678728,176.72339223233985 L215.32231325217424,168.69622388006093 M215.32231325217424,168.69622388006093 L188.64425096343246,156.63431964857656 M188.64425096343246,156.63431964857656 L167.74502299871352,141.23904614739592 M167.74502299871352,141.23904614739592 L153.8390413142489,123.40550698445992 M153.8390413142489,123.40550698445992 L147.73402906209736,104.1704158822156 M147.73402906209736,104.1704158822156 L149.78415079058658,84.6517756468113 M149.78415079058658,84.6517756468113 L159.86959250409313,65.98390485901251 M159.86959250409313,65.98390485901251 L177.40366087282393,49.25148234253311 M177.40366087282393,49.25148234253311 L201.36702639214275,35.42658774611664 M201.36702639214275,35.42658774611664 L230.36702130409532,25.31228490830142 M230.36702130409532,25.31228490830142 L262.7185890324785,19.49603297728646 M262.7185890324785,19.49603297728646 L296.5421452681758,18.315632768438263 M296.5421452681758,18.315632768438263 L329.8726376030961,21.839634984353893 M329.8726376030961,21.839634984353893 L360.7736691907589,29.86337755910813 M360.7736691907589,29.86337755910813 L387.44983325959873,41.92083799406731 M188.673248277372,558.3826630346804 L188.673248277372,558.3826630346804 M553.0134829681583,242.86133780651878 L453.6679739318797,300.20973062306325 M453.6679739318797,300.20973062306325 L475.4695188075299,315.8484344866929 M475.4695188075299,315.8484344866929 L496.0037532348596,336.692224685632 M496.0037532348596,336.692224685632 L514.0769040393518,361.5295343593932 M514.0769040393518,361.5295343593932 L528.6382512412139,388.9164983991123 M528.6382512412139,388.9164983991123 L538.8413084335228,417.26098970930957 M538.8413084335228,417.26098970930957 L544.0930197893971,444.9152212498957 M544.0930197893971,444.9152212498957 L544.0883051123169,470.2716590736992 M544.0883051123169,470.2716590736992 L538.8277232000186,491.8565134814075 M538.8277232000186,491.8565134814075 L528.6173741035265,508.4154271330049 M528.6173741035265,508.4154271330049 L514.0510609185333,518.9863811957566 M514.0510609185333,518.9863811957566 L495.9756271981963,522.9554962389448 M495.9756271981963,522.9554962389448 L475.4417235131358,520.0926207933818 M475.4417235131358,520.0926207933818 L453.6426774456478,510.5645825720619 M453.6426774456478,510.5645825720619 L431.8451631592328,494.92539184481683 M431.8451631592328,494.92539184481683 L411.3156296193166,474.0839866135942 M411.3156296193166,474.0839866135942 L393.2467730847517,449.2513873715935 M393.2467730847517,449.2513873715935 L378.6883297682173,421.87038012321756 M378.6883297682173,421.87038012321756 L368.48612083580275,393.5317273375315 M368.48612083580275,393.5317273375315 L363.23300778203935,365.88187851716214 M363.23300778203935,365.88187851716214 L363.234391919126,340.52736358147683 M363.234391919126,340.52736358147683 L368.4904774359011,318.94153171932163 M368.4904774359011,318.94153171932163 L378.69619434958486,302.378964192157 M378.69619434958486,302.378964192157 L393.258800744808,291.80251689524266 M393.258800744808,291.80251689524266 L411.33230224656234,287.82732768937944 M411.33230224656234,287.82732768937944 L431.866490933176,290.68493956287836 M431.866490933176,290.68493956287836 L453.6679739318797,300.20973062306325 M210.547897199371,606.9457883473934 L217.73023186911695,602.5740968318571 M217.73023186911695,602.5740968318571 L223.78334702903965,599.2680470554603 M188.673248277372,558.3826630346804 L188.673248277372,558.3826630346804 M644.196708129096,601.4226425995154 L641.5436556776289,628.1250874504855 M641.5436556776289,628.1250874504855 L633.7518211804976,656.3324145721631 M633.7518211804976,656.3324145721631 L621.2740618083545,684.4057712578111 M621.2740618083545,684.4057712578111 L604.8353778560659,710.7141454034368 M604.8353778560659,710.7141454034368 L585.3908048023326,733.7290788164651 M585.3908048023326,733.7290788164651 L564.0699929508334,752.1133191044626 M564.0699929508334,752.1133191044626 L542.1116475086365,764.7985357996076 M542.1116475086365,764.7985357996076 L520.791624169072,771.0473452490398 M520.791624169072,771.0473452490398 L501.3488469513827,770.4962018697214 M501.3488469513827,770.4962018697214 L484.9133304550751,763.1766592737404 M484.9133304550751,763.1766592737404 L472.4404914722952,749.5135787427199 M472.4404914722952,749.5135787427199 L464.65557696102985,730.3006117160963 M464.65557696102985,730.3006117160963 L462.01141977546877,706.6541374261275 M462.01141977546877,706.6541374261275 L464.6620358720711,679.9484444172891 M464.6620358720711,679.9484444172891 L472.45358696361893,651.7358509608775 M472.45358696361893,651.7358509608775 L484.9332808038324,623.6564162165572 M484.9332808038324,623.6564162165572 L501.3756739341994,597.3425447003781 M501.3756739341994,597.3425447003781 L520.8248811482072,574.3239539811851 M520.8248811482072,574.3239539811851 L542.1501905134098,555.9387343025073 M542.1501905134098,555.9387343025073 L564.1118664952617,543.2554404953723 M564.1118664952617,543.2554404953723 L585.433290413959,537.0110157021566 M585.433290413959,537.0110157021566 L604.8752173939725,537.5680010363396 M604.8752173939725,537.5680010363396 L621.3078276166449,544.8935045598856 M621.3078276166449,544.8935045598856 L633.7763700802794,558.5612994186895 M633.7763700802794,558.5612994186895 L641.5565821086034,577.7766541759754 M641.5565821086034,577.7766541759754 L644.196708129096,601.4226425995154 M321.17808726651333,634.8684299709251 L321.17808726651333,634.8684299709251 M321.17808726651333,634.8684299709251 L318.8919578288564,638.0325619560089 M318.8919578288564,638.0325619560089 L306.7376549122296,649.6726095848028 M306.7376549122296,649.6726095848028 L289.02881325869635,658.2842522888475 M289.02881325869635,658.2842522888475 L277.62645051772114,659.6385307556291 M277.62645051772114,659.6385307556291 L265.92408232227433,657.7161178122162 M265.92408232227433,657.7161178122162 L254.2771886420395,652.3878317469788 M254.2771886420395,652.3878317469788 L240.48016820617926,641.5617620799904 M240.48016820617926,641.5617620799904 L227.91274541181548,627.8625212929638 M227.91274541181548,627.8625212929638 L220.12911763855476,618.2825438792321 M220.12911763855476,618.2825438792321 L210.547897199371,606.9457883473934 M321.1762473176647,596.6162506472217 L312.0319086768858,592.5065789506489 M312.0319086768858,592.5065789506489 L301.4203603232177,589.818879041957 M301.4203603232177,589.818879041957 L289.99097038300727,588.7176003744144 M289.99097038300727,588.7176003744144 L278.4431320076171,589.270126398997 M278.4431320076171,589.270126398997 L267.48349115036496,591.4426503909184 M267.48349115036496,591.4426503909184 L257.7827045580352,595.1022437724347 M257.7827045580352,595.1022437724347 L249.93442147600933,600.0249835830141 M249.93442147600933,600.0249835830141 L244.41896270429214,605.9096494278551 M244.41896270429214,605.9096494278551 L241.57391446865944,612.3961399570165 M241.57391446865944,612.3961399570165 L241.57346278783513,619.0875107005061 M241.57346278783513,619.0875107005061 L244.41771654083487,625.5742495042385 M244.41771654083487,625.5742495042385 L249.93268122058748,631.4593520510758 M249.93268122058748,631.4593520510758 L257.7808897037561,636.382611722812 M257.7808897037561,636.382611722812 L267.4820391722167,640.0426828109903 M267.4820391722167,640.0426828109903 L278.4423929085052,642.2155272026278 M278.4423929085052,642.2155272026278 L289.99112232481724,642.7681390868178 M289.99112232481724,642.7681390868178 L301.42136667985744,641.6666910420787 M301.42136667985744,641.6666910420787 L312.03352686367856,638.9786073483231 M312.03352686367856,638.9786073483231 L321.17808726651333,634.8684299709251 M379.16759068503865,46.69980280311165 L398.3268852048339,60.80823153819614 M398.3268852048339,60.80823153819614 L411.07865044274934,77.15263296943886 M411.07865044274934,77.15263296943886 L416.6814261568991,94.78337826899434 M416.6814261568991,94.78337826899434 L414.8090633681476,112.67594313075409 M414.8090633681476,112.67594313075409 L405.56982176097733,129.7904478486181 M405.56982176097733,129.7904478486181 L389.5001632097225,145.1320629836925 M389.5001632097225,145.1320629836925 L367.5337447933865,157.8089035720191 M367.5337447933865,157.8089035720191 L340.94717600744343,167.083908225271 M340.94717600744343,167.083908225271 L311.28582761408154,172.41774938699854 M311.28582761408154,172.41774938699854 L280.2739955360142,173.5002684820309 M280.2739955360142,173.5002684820309 L249.71452192958878,170.26850779924482 M249.71452192958878,170.26850779924482 L221.38395575268612,162.91040406832855 M221.38395575268612,162.91040406832855 L196.92914044913988,151.85382753637566 M196.92914044913988,151.85382753637566 L177.7714409607829,137.7416647771214 M177.7714409607829,137.7416647771214 L165.02409541371037,121.39438474183027 M165.02409541371037,121.39438474183027 L159.42755155245283,103.76227571158472 M159.42755155245283,103.76227571158472 L161.306530711836,85.87017440675947 M161.306530711836,85.87017440675947 L170.55125748113562,68.75785433866702 M170.55125748113562,68.75785433866702 L186.62401339676455,53.41964446844537 M186.62401339676455,53.41964446844537 L208.59043181313848,40.7466496556608 M208.59043181313848,40.7466496556608 L235.17390323475024,31.475050267825054 M235.17390323475024,31.475050267825054 L264.829766465956,26.14339375330394 M264.829766465956,26.14339375330394 L295.8349821733183,25.061338215388105 M295.8349821733183,25.061338215388105 L326.3882239267949,28.291735167476077 M326.3882239267949,28.291735167476077 L354.71437041286384,35.64696029489886 M354.71437041286384,35.64696029489886 L379.16759068503865,46.69980280311165 M644.196708129096,601.4226425995154 L544.7870185983312,544.0371988094503 M544.7870185983312,544.0371988094503 L542.1450744611799,520.3920045044533 M542.1450744611799,520.3920045044533 L534.3631496976544,501.17688823599195 M534.3631496976544,501.17688823599195 L521.8930994493525,487.50876232184606 M521.8930994493525,487.50876232184606 L505.45927406447277,480.1823773616585 M505.45927406447277,480.1823773616585 L486.0164952114593,479.624011354097 M486.0164952114593,479.624011354097 L464.6946322573964,485.8666364081794 M464.6946322573964,485.8666364081794 L442.73295561419627,498.5478159671374 M442.73295561419627,498.5478159671374 L421.40808400013054,516.9307297611222 M421.40808400013054,516.9307297611222 L401.95972748805286,539.9469570066212 M401.95972748805286,539.9469570066212 L385.5185485300712,566.2585448850582 M385.5185485300712,566.2585448850582 L373.0403617234736,594.3359086248879 M373.0403617234736,594.3359086248879 L365.2505228984637,622.5467641469061 M365.2505228984637,622.5467641469061 L362.60172475942977,649.2511533482144 M362.60172475942977,649.2511533482144 L365.24769992902793,672.8968337500214 M365.24769992902793,672.8968337500214 L373.03432680742776,692.1095629258513 M373.03432680742776,692.1095629258513 L385.5086730556824,705.7729754117283 M385.5086730556824,705.7729754117283 L401.94540416281995,713.0934003992811 M401.94540416281995,713.0934003992811 L421.38903279626027,713.6459252435611 M421.38903279626027,713.6459252435611 L442.7094949128209,707.3989159801557 M442.7094949128209,707.3989159801557 L464.6678410160655,694.7158135330142 M464.6678410160655,694.7158135330142 L485.9882153742641,676.3338786825084 M485.9882153742641,676.3338786825084 L505.43193818297414,653.3213079513934 M505.43193818297414,653.3213079513934 L521.8694085141825,627.0152164885377 M521.8694085141825,627.0152164885377 L534.3456613721156,598.9439299079891 M534.3456613721156,598.9439299079891 L542.1357839712266,570.7383400829341 M542.1357839712266,570.7383400829341 L544.7870185983312,544.0371988094503 M379.16759068503865,46.69980280311165 L379.1599969945442,161.49978676366578 M379.1599969945442,161.49978676366578 L354.7088148488745,150.4460213778134 M354.7088148488745,150.4460213778134 L326.38502918273895,143.0901820957883 M326.38502918273895,143.0901820957883 L295.83433380365045,139.85951540435286 M295.83433380365045,139.85951540435286 L264.83170212700315,140.94166129459035 M264.83170212700315,140.94166129459035 L235.17831050416424,146.273763001659 M235.17831050416424,146.273763001659 L208.59705470438962,155.5461365502999 M208.59705470438962,155.5461365502999 L186.63246720430385,168.2201895002071 M186.63246720430385,168.2201895002071 L170.56105109313677,183.55967998877375 M170.56105109313677,183.55967998877375 L161.3170951068131,200.6734287320079 M161.3170951068131,200.6734287320079 L159.43827283736402,218.56702373855782 M159.43827283736402,218.56702373855782 L165.0343504824973,236.20060468948725 M165.0343504824973,236.20060468948725 L177.7806337136331,252.54924932121185 M177.7806337136331,252.54924932121185 L196.93673646086444,266.66259004742244 M196.93673646086444,266.66259004742244 L221.38951337202172,277.72008945748144 M221.38951337202172,277.72008945748144 L249.71771799225326,285.0788073433603 M249.71771799225326,285.0788073433603 L280.2746441854752,288.3108377656645 M280.2746441854752,288.3108377656645 L311.2838911299153,287.2282283182525 M311.2838911299153,287.2282283182525 L340.9427670005643,281.8939419637039 M340.9427670005643,281.8939419637039 L367.5271196483567,272.6181631492208 M367.5271196483567,272.6181631492208 L389.49170714840466,259.9402644232904 M389.49170714840466,259.9402644232904 L405.560026411511,244.59736866944522 M405.560026411511,244.59736866944522 L414.7984981500514,227.48143527616585 M414.7984981500514,227.48143527616585 L416.670705151781,209.58737671262358 M416.670705151781,209.58737671262358 L411.0683966925709,191.95515949255469 M411.0683966925709,191.95515949255469 L398.3176945073301,175.60939346523887 M398.3176945073301,175.60939346523887 L379.1599969945442,161.49978676366578" stroke="black"  stroke-width="4"  fill="red"/></svg>