<svg viewBox="0 0 800 800" xmlns="http://www.w3.org/2000/svg"><path d="M404.4402777802367,299.77530860931466 L421.6808358565228,313.47601977409056 M421.6808358565228,313.47601977409056 L435.16639163386753,332.39968405386054 M435.16639163386753,332.39968405386054 L444.49984892081955,355.9895269742 M444.49984892081955,355.9895269742 L448.73878309274846,377.3648878575289 M448.73878309274846,377.3648878575289 L450.1612240214704,400.8086829453844 M404.4402777802367,299.77530860931466 L551.5555922082631,214.85239957988819 M551.5555922082631,214.85239957988819 L525.1429747171345,203.3149705911622 M525.1429747171345,203.3149705911622 L500.26544341067313,199.85457541742602 M500.26544341067313,199.85457541742602 L478.3688268508629,204.67173218107243 M478.3688268508629,204.67173218107243 L460.72544795692534,217.4858018567457 M460.72544795692534,217.4858018567457 L448.36027247430013,237.5514538992974 M448.36027247430013,237.5514538992974 L441.99138534521444,263.7021312303849 M441.99138534521444,263.7021312303849 L441.9884147873187,294.4179438185857 M441.9884147873187,294.4179438185857 L448.35115727476216,327.91401226165607 M448.35115727476216,327.91401226165607 L460.7096755064148,362.24416496665464 M460.7096755064148,362.24416496665464 L478.3458439531986,395.41392846463094 M478.3458439531986,395.41392846463094 L500.23502506939053,425.49624862491186 M500.23502506939053,425.49624862491186 L525.1055946840218,450.7433972786216 M525.1055946840218,450.7433972786216 L551.5126919156195,469.68837313346836 M551.5126919156195,469.68837313346836 L577.922088576501,481.2300934554678 M577.922088576501,481.2300934554678 L602.799242893244,484.69744454488927 M602.799242893244,484.69744454488927 L624.6984126672866,479.88831476379505 M624.6984126672866,479.88831476379505 L642.3466900706068,467.08150425593647 M642.3466900706068,467.08150425593647 L654.7179871649352,447.02068057353677 M654.7179871649352,447.02068057353677 L661.0928166224994,420.8712946788927 M661.0928166224994,420.8712946788927 L661.1001889107142,390.1529407505757 M661.1001889107142,390.1529407505757 L654.7392991716121,356.65108038143944 M654.7392991716121,356.65108038143944 L642.3796602643523,322.31321202443905 M642.3796602643523,322.31321202443905 L624.7396544479559,289.1355767091833 M624.7396544479559,289.1355767091833 L602.8447983674744,259.0470319094834 M602.8447983674744,259.0470319094834 L577.9680162573633,233.79673178115783 M577.9680162573633,233.79673178115783 L551.5555922082631,214.85239957988819 M183.73358965765453,427.21099272189184 L216.05376452919091,379.9135480032581 M216.05376452919091,379.9135480032581 L253.6914444697012,340.17999990463784 M253.6914444697012,340.17999990463784 L294.0823358545208,310.7177332413578 M294.0823358545208,310.7177332413578 L330.5144953049217,294.65994093365543 M330.5144953049217,294.65994093365543 L358.64034184899725,289.5808702703002 M358.64034184899725,289.5808702703002 L381.9774238168896,291.26100343244184 M381.9774238168896,291.26100343244184 L393.64438576318133,294.659405788572 M393.64438576318133,294.659405788572 L404.4402777802367,299.77530860931466 M183.73358965765453,427.21099272189184 L226.83087278540796,452.09322073704175 M226.83087278540796,452.09322073704175 L239.37888782454672,461.24980234234613 M239.37888782454672,461.24980234234613 L251.1802693451034,472.87257087464803 M251.1802693451034,472.87257087464803 L262.54004257463987,486.110199420026 M262.54004257463987,486.110199420026 L273.5688810315911,500.31155142207325 M273.5688810315911,500.31155142207325 L284.2449101923851,514.9480589125624 M284.2449101923851,514.9480589125624 L294.4281129076196,529.5482446044418 M294.4281129076196,529.5482446044418 L303.8952277597902,543.6958069088171 M303.8952277597902,543.6958069088171 L312.3598110719906,557.0224229122559 M312.3598110719906,557.0224229122559 L319.50710049451646,569.2149166388526 M319.50710049451646,569.2149166388526 L326.50484197732004,583.2894107182385 M326.50484197732004,583.2894107182385 L329.2781607041726,590.7110976330139 M329.2781607041726,590.7110976330139 L330.86422961934113,597.1010523755065 M413.590932929577,598.0444356007051 L392.8946714027968,600.1386448415219 M392.8946714027968,600.1386448415219 L369.36270505688293,599.7465965775175 M369.36270505688293,599.7465965775175 L349.2173968159659,598.3888738915246 M349.2173968159659,598.3888738915246 L330.86422961934113,597.1010523755065 M514.7982197059526,490.92087104339026 L511.74546233217006,512.0310390757232 M511.74546233217006,512.0310390757232 L502.67783160345596,532.5572655273786 M502.67783160345596,532.5572655273786 L487.84610552024003,551.9323810752678 M487.84610552024003,551.9323810752678 L467.66035290250375,569.6210561661018 M467.66035290250375,569.6210561661018 L442.6785070783634,585.1345926540373 M442.6785070783634,585.1345926540373 L413.590932929577,598.0444356007051 M450.1612240214704,400.8086829453844 L482.28175509938205,424.3357834042681 M482.28175509938205,424.3357834042681 L500.7389926708512,446.15712325060497 M500.7389926708512,446.15712325060497 L511.14758301745655,467.82940321483954 M511.14758301745655,467.82940321483954 L513.8845131373434,479.3271418941151 M513.8845131373434,479.3271418941151 L514.7982197059526,490.92087104339026 M450.1612240214704,400.8086829453844 L446.30396782526736,403.0356708485955 M446.30396782526736,403.0356708485955 L436.37566207583575,408.76778084562676 M436.37566207583575,408.76778084562676 L422.5409151803058,416.7552756899314 M422.5409151803058,416.7552756899314 L406.5007279963953,426.0160820784142 M406.5007279963953,426.0160820784142 L389.51655368865204,435.8218996869532 M389.51655368865204,435.8218996869532 L370.49335068088783,446.8049510643347 M370.49335068088783,446.8049510643347 L349.8376091544303,458.73054899494633 M349.8376091544303,458.73054899494633 L327.9907423995633,471.3438433968187 M327.9907423995633,471.3438433968187 L305.4196167750382,484.37528885205114 M305.4196167750382,484.37528885205114 L282.60660822527694,497.54638547928096 M282.60660822527694,497.54638547928096 L252.65503861188864,514.8389322582225 M252.65503861188864,514.8389322582225 L220.8934231154716,533.1765095149764 M220.8934231154716,533.1765095149764 L201.2799090475687,544.5003771418345 M201.2799090475687,544.5003771418345 L183.71519666720587,554.6413685628754 M226.81656792139296,614.7170386790651 L183.71519666720587,554.6413685628754 M226.83087278540796,452.09322073704175 L197.10249783942112,462.8073630419634 M197.10249783942112,462.8073630419634 L172.26374745193806,477.08159352884974 M172.26374745193806,477.08159352884974 L153.5673206119771,494.1963871025885 M153.5673206119771,494.1963871025885 L141.9563744575679,513.2889047009073 M141.9563744575679,513.2889047009073 L138.01697987261787,533.3964828173023 M138.01697987261787,533.3964828173023 L141.94837302774152,553.5051185399979 M141.94837302774152,553.5051185399979 L153.55291153860742,572.6005982949878 M153.55291153860742,572.6005982949878 L172.24580084165177,589.7196685520082 M172.24580084165177,589.7196685520082 L197.08458843789816,603.9986383835342 M197.08458843789816,603.9986383835342 L226.81656792139296,614.7170386790651 M404.4586738365671,44.84021192069332 L404.4402777802367,299.77530860931466 M404.4586738365671,44.84021192069332 L427.66910938079036,61.93295912389851 M427.66910938079036,61.93295912389851 L443.1173665205523,81.73472588876734 M443.1173665205523,81.73472588876734 L449.90514087795464,103.09503029536893 M449.90514087795464,103.09503029536893 L447.6372505248863,124.77265373081053 M447.6372505248863,124.77265373081053 L436.44474427212845,145.50770435236325 M436.44474427212845,145.50770435236325 L416.9774769953299,164.09489813363786 M416.9774769953299,164.09489813363786 L390.36646345737495,179.45363186487504 M390.36646345737495,179.45363186487504 L358.1582435434901,190.6908745315747 M358.1582435434901,190.6908745315747 L322.2249889401307,197.15317474504997 M322.2249889401307,197.15317474504997 L284.65561481567545,198.4647162284744 M284.65561481567545,198.4647162284744 L247.63429006328028,194.54922759288365 M247.63429006328028,194.54922759288365 L213.31324551446505,185.63441533122148 M213.31324551446505,185.63441533122148 L183.68759568208043,172.2387062650046 M183.68759568208043,172.2387062650046 L160.47926799923965,155.1410240747146 M160.47926799923965,155.1410240747146 L145.03685155387436,135.33545286961225 M145.03685155387436,135.33545286961225 L138.25731269178527,113.97334612025509 M138.25731269178527,113.97334612025509 L140.53394669217607,92.29633533442654 M140.53394669217607,92.29633533442654 L151.73370167396678,71.56417200383055 M151.73370167396678,71.56417200383055 L171.20506216867233,52.981478711420266 M171.20506216867233,52.981478711420266 L197.81607570668672,37.627827660140724 M197.81607570668672,37.627827660140724 L230.02020240273202,26.39508548327035 M230.02020240273202,26.39508548327035 L265.9462082770165,19.935672562036302 M265.9462082770165,19.935672562036302 L303.50683875403377,18.624743727637963 M303.50683875403377,18.624743727637963 L340.5199280110268,22.538430019831537 M340.5199280110268,22.538430019831537 L374.83513186545974,31.449437840177836 M374.83513186545974,31.449437840177836 L404.4586738365671,44.84021192069332 M551.5520166377601,236.09197474332694 L529.5417272181671,226.47714826279253 M529.5417272181671,226.47714826279253 L508.8104787610306,223.5930100765461 M508.8104787610306,223.5930100765461 L490.563118049422,227.6067482204002 M490.563118049422,227.6067482204002 L475.85996798655253,238.28463636265354 M475.85996798655253,238.28463636265354 L465.5552227153146,255.0056735926471 M465.5552227153146,255.0056735926471 L460.2474027369499,276.79781506247036 M460.2474027369499,276.79781506247036 L460.24462168905245,302.3945020337558 M460.24462168905245,302.3945020337558 L465.5467799569824,330.3082962447221 M465.5467799569824,330.3082962447221 L475.84563028962816,358.917296748558 M475.84563028962816,358.917296748558 L490.5426979139993,386.55930695986183 M490.5426979139993,386.55930695986183 L508.7840791028824,411.6283409662964 M508.7840791028824,411.6283409662964 L529.5099836456232,432.6678562571024 M529.5099836456232,432.6678562571024 L551.5162663939661,448.45528558753574 M551.5162663939661,448.45528558753574 L573.5243191258444,458.0730921591523 M573.5243191258444,458.0730921591523 L594.2553057846858,460.96206084377775 M594.2553057846858,460.96206084377775 L612.5044395617907,456.95389699369815 M612.5044395617907,456.95389699369815 L627.2109913661934,446.28104993880885 M627.2109913661934,446.28104993880885 L637.5199877578365,429.5633657380488 M637.5199877578365,429.5633657380488 L642.8319343537318,407.77212109934237 M642.8319343537318,407.77212109934237 L642.8377721588738,382.17366930847186 M642.8377721588738,382.17366930847186 L637.5369005214108,354.255852926238 M637.5369005214108,354.255852926238 L627.2372719395491,325.6414943300289 M627.2372719395491,325.6414943300289 L612.5375394767583,297.99401758008605 M612.5375394767583,297.99401758008605 L594.2922173397748,272.92066090743276 M594.2922173397748,272.92066090743276 L573.5619985647644,251.87895709073376 M573.5619985647644,251.87895709073376 L551.5520166377601,236.09197474332694 M226.81656792139296,614.7170386790651 L239.36689791239564,628.8245820546833 M239.36689791239564,628.8245820546833 L251.17082345379998,641.2092252325217 M251.17082345379998,641.2092252325217 L262.5332214332168,651.4529839443271 M262.5332214332168,651.4529839443271 L273.56461601248105,659.2802861340313 M273.56461601248105,659.2802861340313 L284.24298575944835,664.5231157881667 M284.24298575944835,664.5231157881667 L294.4281707278337,667.1040694369285 M294.4281707278337,667.1040694369285 L303.89680656207406,667.0601173888913 M303.89680656207406,667.0601173888913 L312.36237733188153,664.5667912421231 M312.36237733188153,664.5667912421231 L319.51011807347857,659.9698794765773 M319.51011807347857,659.9698794765773 L326.5077309542728,651.5284446452388 M326.5077309542728,651.5284446452388 L329.28068374095113,645.5754883133118 M329.28068374095113,645.5754883133118 L330.86627294436556,639.5813829081233 M330.86422961934113,597.1010523755065 L320.7091342801912,592.5371238585559 M320.7091342801912,592.5371238585559 L308.9246532520127,589.5523427947758 M308.9246532520127,589.5523427947758 L296.23193165992706,588.3293358280397 M296.23193165992706,588.3293358280397 L283.407669100334,588.9429345449524 M283.407669100334,588.9429345449524 L271.2366196499215,591.3555954416264 M271.2366196499215,591.3555954416264 L260.4635701621715,595.4196968656584 M260.4635701621715,595.4196968656584 L251.7477880725636,600.8865648448613 M251.7477880725636,600.8865648448613 L245.6226857697942,607.4216840088548 M245.6226857697942,607.4216840088548 L242.46316410154708,614.6251497079897 M242.46316410154708,614.6251497079897 L242.4626624948138,622.0561417697568 M242.4626624948138,622.0561417697568 L245.62130186339988,629.2598831861458 M245.62130186339988,629.2598831861458 L251.74585546043966,635.7954873223805 M251.74585546043966,635.7954873223805 L260.46155470550974,641.2629326248671 M260.46155470550974,641.2629326248671 L271.2350071793968,645.3275645581996 M271.2350071793968,645.3275645581996 L283.40684830593426,647.7405812695247 M283.40684830593426,647.7405812695247 L296.2321003964127,648.3542753364168 M296.2321003964127,648.3542753364168 L308.9257708448779,647.1310802706123 M308.9257708448779,647.1310802706123 L320.71093133100084,644.1458730006223 M320.71093133100084,644.1458730006223 L330.86627294436556,639.5813829081233 M330.86422961934113,597.1010523755065 L338.12707457183564,602.3597132918512 M338.12707457183564,602.3597132918512 L343.1814682491451,608.4197911947952 M343.1814682491451,608.4197911947952 L345.7739230015302,614.9774384806135 M345.7739230015302,614.9774384806135 L345.77437768420003,621.7038464749985 M345.77437768420003,621.7038464749985 L343.182742241414,628.2617215973746 M343.182742241414,628.2617215973746 L338.1289155440307,634.3222100476291 M338.1289155440307,634.3222100476291 L330.86627294436556,639.5813829081233 M413.590932929577,598.0444356007051 L392.89678507715723,617.4462393331496 M392.89678507715723,617.4462393331496 L369.36567260216754,630.7147073087922 M369.36567260216754,630.7147073087922 L349.22014701024466,637.0645573406391 M349.22014701024466,637.0645573406391 L330.86627294436556,639.5813829081233 M514.7982197059526,490.92087104339026 L661.9830201273821,575.8838946833839 M661.9830201273821,575.8838946833839 L658.769468082384,608.2329687548254 M658.769468082384,608.2329687548254 L649.3304081072495,642.4049077404568 M649.3304081072495,642.4049077404568 L634.2144320962475,676.4143544251417 M634.2144320962475,676.4143544251417 L614.2997994301504,708.2855064244839 M614.2997994301504,708.2855064244839 L590.7434675071257,736.1667253023811 M590.7434675071257,736.1667253023811 L564.9139173557427,758.4380838372163 M564.9139173557427,758.4380838372163 L538.311758078311,773.8053642472371 M538.311758078311,773.8053642472371 L512.482638816848,781.3752562723621 M512.482638816848,781.3752562723621 L488.92749334492953,780.7073309636914 M488.92749334492953,780.7073309636914 L469.0153530965731,771.8397355820787 M469.0153530965731,771.8397355820787 L453.9037777914175,755.2871610657403 M453.9037777914175,755.2871610657403 L444.4714749412825,732.0110425295272 M444.4714749412825,732.0110425295272 L441.26714309081876,703.3638412396392 M441.26714309081876,703.3638412396392 L444.4774751260311,671.010474416614 M444.4774751260311,671.010474416614 L453.9161603807486,636.8315755825877 M453.9161603807486,636.8315755825877 L469.03469280656395,602.8140963704993 M469.03469280656395,602.8140963704993 L488.9542273802002,570.9356793163881 M488.9542273802002,570.9356793163881 L512.5166837336026,543.0496271988202 M512.5166837336026,543.0496271988202 L538.3521778052769,520.7769744723698 M538.3521778052769,520.7769744723698 L564.9587388129679,505.4122354025677 M564.9587388129679,505.4122354025677 L590.7897092308912,497.8481380587966 M590.7897092308912,497.8481380587966 L614.3437312085697,498.52378389891464 M614.3437312085697,498.52378389891464 L634.2520306892717,507.3992569845616 M634.2520306892717,507.3992569845616 L649.3579278296461,523.9580616850163 M649.3579278296461,523.9580616850163 L658.7840159149864,547.2373356285801 M658.7840159149864,547.2373356285801 L661.9830201273821,575.8838946833839 M386.06389524083994,55.45513085157228 L361.3774697194734,44.295808143700526 M361.3774697194734,44.295808143700526 L332.78105657746266,36.86970839157283 M332.78105657746266,36.86970839157283 L301.93624081305245,33.60817633781761 M301.93624081305245,33.60817633781761 L270.6351163880676,34.70066167346829 M270.6351163880676,34.70066167346829 L240.6962675580413,40.083702001440315 M240.6962675580413,40.083702001440315 L213.85920888975988,49.44463250813641 M213.85920888975988,49.44463250813641 L191.68336422904758,62.239694600660414 M191.68336422904758,62.239694600660414 L175.45751538498126,77.72558609097666 M175.45751538498126,77.72558609097666 L166.1248968599291,95.0025935710886 M166.1248968599291,95.0025935710886 L164.2283053872971,113.06680712874748 M164.2283053872971,113.06680712874748 L169.8784959838245,130.8684392697104 M169.8784959838245,130.8684392697104 L182.74757472740566,147.3728202391228 M182.74757472740566,147.3728202391228 L202.08799716934436,161.62054257977866 M202.08799716934436,161.62054257977866 L226.77588648199162,172.78329236160351 M226.77588648199162,172.78329236160351 L255.3763556630235,180.21203408533188 M255.3763556630235,180.21203408533188 L286.2268905217634,183.4748177670544 M286.2268905217634,183.4748177670544 L317.5340869223537,182.38190697988466 M317.5340869223537,182.38190697988466 L347.4779695937608,176.99686158946614 M347.4779695937608,176.99686158946614 L374.3178707749306,167.6328057426985 M374.3178707749306,167.6328057426985 L396.4937154356142,154.8342140112171 M396.4937154356142,154.8342140112171 L412.71672176675963,139.3451971810781 M412.71672176675963,139.3451971810781 L422.04430645045136,122.06618463746639 M422.04430645045136,122.06618463746639 L423.93482594753345,104.00154562893636 M423.93482594753345,104.00154562893636 L418.2789162567193,86.20116511500532 M418.2789162567193,86.20116511500532 L405.40578147411014,69.69942611856061 M405.40578147411014,69.69942611856061 L386.06389524083994,55.45513085157228 M551.5520166377601,236.09197474332694 L404.4387450523312,321.01606422430666 M404.4387450523312,321.01606422430666 L426.4490245007248,336.80604067780564 M426.4490245007248,336.80604067780564 L447.18011717774766,357.8509077125679 M447.18011717774766,357.8509077125679 L465.42683876945625,382.92741281310145 M465.42683876945625,382.92741281310145 L480.12841485528213,410.57784013163496 M480.12841485528213,410.57784013163496 L490.4302240257082,439.19477986182386 M490.4302240257082,439.19477986182386 L495.73348644182215,467.1146578534237 M495.73348644182215,467.1146578534237 L495.7301106351729,492.71453186972917 M495.7301106351729,492.71453186972917 L490.42055417498295,514.5064766952172 M490.42055417498295,514.5064766952172 L480.1137371773377,531.2240983979486 M480.1137371773377,531.2240983979486 L465.4090274147625,541.8961239862565 M465.4090274147625,541.8961239862565 L447.16129133168226,545.902755240277 M447.16129133168226,545.902755240277 L426.43117684553533,543.0116319942149 M426.43117684553533,543.0116319942149 L404.42342011458567,533.3911741768727 M404.42342011458567,533.3911741768727 L382.4168400076233,517.6007510216375 M382.4168400076233,517.6007510216375 L361.6900620133399,496.55807329251576 M361.6900620133399,496.55807329251576 L343.4472820047047,471.4858919577749 M343.4472820047047,471.4858919577749 L328.7483714313101,443.8409323453818 M328.7483714313101,443.8409323453818 L318.4473410687425,415.22935167553425 M318.4473410687425,415.22935167553425 L313.1427923374565,387.31349640188733 M313.1427923374565,387.31349640188733 L313.14311138657825,361.7153872053303 M313.14311138657825,361.7153872053303 L318.44854091344183,339.9225450023294 M318.44854091344183,339.9225450023294 L328.75110623171804,323.20156930258145 M328.75110623171804,323.20156930258145 L343.4524135786803,312.5245014594478 M343.4524135786803,312.5245014594478 L361.6983759614917,308.5122948119634 M361.6983759614917,308.5122948119634 L382.4287517958874,311.39858677965424 M382.4287517958874,311.39858677965424 L404.4387450523312,321.01606422430666 M643.5928407657353,586.5056003515917 L640.9151086425865,613.4634559336923 M640.9151086425865,613.4634559336923 L633.0492454690494,641.9405566764071 M633.0492454690494,641.9405566764071 L620.452421287604,670.282323316445 M620.452421287604,670.282323316445 L603.856555925871,696.8421130439854 M603.856555925871,696.8421130439854 L584.2258541134578,720.0768061405834 M584.2258541134578,720.0768061405834 L562.7008155699488,738.6363635941948 M562.7008155699488,738.6363635941948 L540.5320438767993,751.4422542005391 M540.5320438767993,751.4422542005391 L519.0076485478879,757.7500939768659 M519.0076485478879,757.7500939768659 L499.3784386600603,757.1929450338598 M499.3784386600603,757.1929450338598 L482.78525735873916,749.8027406525209 M482.78525735873916,749.8027406525209 L470.1926722847485,736.0084924934126 M470.1926722847485,736.0084924934126 L462.33284571356273,716.6115129352993 M462.33284571356273,716.6115129352993 L459.662943625701,692.7388889229655 M459.662943625701,692.7388889229655 L462.338439629831,665.7780522642036 M462.338439629831,665.7780522642036 L470.2040425828137,637.2961182931169 M470.2040425828137,637.2961182931169 L482.8026420519468,608.9487735084847 M482.8026420519468,608.9487735084847 L499.4019115159456,582.3839386059677 M499.4019115159456,582.3839386059677 L519.0368664044884,559.1458890906151 M519.0368664044884,559.1458890906151 L540.5660326705956,540.58543289235 M540.5660326705956,540.58543289235 L562.7378611209609,527.7813071056403 M562.7378611209609,527.7813071056403 L584.2635419752381,521.477491414174 M584.2635419752381,521.477491414174 L603.8919716581455,522.0400018390387 M603.8919716581455,522.0400018390387 L620.4824857603697,529.435676846533 M620.4824857603697,529.435676846533 L633.0711276641117,543.234251522606 M633.0711276641117,543.234251522606 L640.9266384252808,562.633422336617 M640.9266384252808,562.633422336617 L643.5928407657353,586.5056003515917 M386.06389524083994,55.45513085157228 L386.0543130964345,214.80063278708096 M386.0543130964345,214.80063278708096 L361.37045937654307,203.64014579893558 M361.37045937654307,203.64014579893558 L332.77702525080593,196.21327124428035 M332.77702525080593,196.21327124428035 L301.9354226588422,192.95139889364566 M301.9354226588422,192.95139889364566 L270.637558927015,194.04399821572898 M270.637558927015,194.04399821572898 L240.7018289197951,199.4276001881944 M240.7018289197951,199.4276001881944 L213.86756603815576,208.7895073574183 M213.86756603815576,208.7895073574183 L191.69403169816246,221.5859043702119 M191.69403169816246,221.5859043702119 L175.46987344122192,237.07341145772313 M175.46987344122192,237.07341145772313 L166.1382274678835,254.35222131968092 M166.1382274678835,254.35222131968092 L164.24183390193292,272.41831929550506 M164.24183390193292,272.41831929550506 L169.89143614899848,290.22180837567964 M169.89143614899848,290.22180837567964 L182.75917437932014,306.7279108871231 M182.75917437932014,306.7279108871231 L202.0975819763537,320.9771193221055 M202.0975819763537,320.9771193221055 L226.78289918254046,332.1410333846278 M226.78289918254046,332.1410333846278 L255.3803885022113,339.5705499112109 M255.3803885022113,339.5705499112109 L286.227708996915,342.83367388996805 M286.227708996915,342.83367388996805 L317.5316434392343,341.7406491163126 M317.5316434392343,341.7406491163126 L347.47240623901956,336.35504208115276 M347.47240623901956,336.35504208115276 L374.3095110413016,326.9900095714704 M374.3095110413016,326.9900095714704 L396.4830453812663,314.1900829192824 M396.4830453812663,314.1900829192824 L412.70436171753147,298.69945049156155 M412.70436171753147,298.69945049156155 L422.03097489832487,281.41863556585594 M422.03097489832487,281.41863556585594 L423.9212977538391,263.3521121391078 M423.9212977538391,263.3521121391078 L418.2659776040764,245.5498746861202 M418.2659776040764,245.5498746861202 L405.39418417981415,229.0464141479713 M405.39418417981415,229.0464141479713 L386.0543130964345,214.80063278708096 M643.5928407657353,586.5056003515917 L496.4080394642168,501.54021644730284 M496.4080394642168,501.54021644730284 L493.73939019527836,477.66910742542524 M493.73939019527836,477.66910742542524 L485.881574398349,458.2702577283225 M485.881574398349,458.2702577283225 L473.2909033503238,444.4712375657366 M473.2909033503238,444.4712375657366 L456.69875397656233,437.07437626273065 M456.69875397656233,437.07437626273065 L437.06917798762015,436.5100075777605 M437.06917798762015,436.5100075777605 L415.5429064608537,442.8114009561827 M415.5429064608537,442.8114009561827 L393.3710773257783,455.61268110639685 M393.3710773257783,455.61268110639685 L371.84250040256455,474.170033723063 M371.84250040256455,474.170033723063 L352.20869060761174,497.4049021269738 M352.20869060761174,497.4049021269738 L335.6110553903483,523.9666633460538 M335.6110553903483,523.9666633460538 L323.0144842878944,552.3112206064757 M323.0144842878944,552.3112206064757 L315.15118588542424,580.7908153064371 M315.15118588542424,580.7908153064371 L312.4781366450386,607.749896965397 M312.4781366450386,607.749896965397 L315.15048549902946,631.621452266475 M315.15048549902946,631.621452266475 L323.0126166555539,651.0181114883223 M323.0126166555539,651.0181114883223 L335.60723023852665,664.81280623455 M335.60723023852665,664.81280623455 L352.2020461367431,672.2041980798358 M352.2020461367431,672.2041980798358 L371.83240177117545,672.763206251537 M371.83240177117545,672.763206251537 L393.3573874565169,666.4577893351054 M393.3573874565169,666.4577893351054 L415.5261598340935,653.6547443650934 M415.5261598340935,653.6547443650934 L437.0506093502663,635.09828994594 M437.0506093502663,635.09828994594 L456.6801666281981,611.8667769920085 M456.6801666281981,611.8667769920085 L473.27439841776925,585.3100597794304 M473.27439841776925,585.3100597794304 L485.86919486803765,556.9710795631125 M485.86919486803765,556.9710795631125 L493.7327539419075,528.496317311125 M493.7327539419075,528.496317311125 L496.4080394642168,501.54021644730284" stroke="black"  stroke-width="4"  fill="red"/></svg>