<svg viewBox="0 0 800 800" xmlns="http://www.w3.org/2000/svg"><path d="M419.0331174580681,291.2821664618176 L551.4354257986794,214.85239957988819 M419.0331174580681,291.2821664618176 L433.1837157496111,302.0946430035856 M433.1837157496111,302.0946430035856 L444.4437884557484,316.2923824276362 M444.4437884557484,316.2923824276362 L452.66891906046703,333.2088128644506 M452.66891906046703,333.2088128644506 L457.9518445743331,352.2267743360666 M457.9518445743331,352.2267743360666 L460.4827568126801,372.8724327847534 M460.4827568126801,372.8724327847534 L460.45189071811217,394.7976919435861 M551.4354257986794,214.85239957988819 L525.0228083075508,203.3149705911622 M525.0228083075508,203.3149705911622 L500.1452770010894,199.85457541742602 M500.1452770010894,199.85457541742602 L478.2486604412792,204.67173218107243 M478.2486604412792,204.67173218107243 L460.60528154734163,217.4858018567457 M460.60528154734163,217.4858018567457 L448.24010606471643,237.5514538992974 M448.24010606471643,237.5514538992974 L441.87121893563074,263.7021312303849 M441.87121893563074,263.7021312303849 L441.868248377735,294.4179438185857 M441.868248377735,294.4179438185857 L448.23099086517846,327.91401226165607 M448.23099086517846,327.91401226165607 L460.5895090968311,362.24416496665464 M460.5895090968311,362.24416496665464 L478.2256775436149,395.41392846463094 M478.2256775436149,395.41392846463094 L500.1148586598068,425.49624862491186 M500.1148586598068,425.49624862491186 L524.985428274438,450.7433972786216 M524.985428274438,450.7433972786216 L551.3925255060358,469.68837313346836 M551.3925255060358,469.68837313346836 L577.8019221669173,481.2300934554678 M577.8019221669173,481.2300934554678 L602.6790764836603,484.69744454488927 M602.6790764836603,484.69744454488927 L624.5782462577029,479.88831476379505 M624.5782462577029,479.88831476379505 L642.2265236610231,467.08150425593647 M642.2265236610231,467.08150425593647 L654.5978207553514,447.02068057353677 M654.5978207553514,447.02068057353677 L660.9726502129157,420.8712946788927 M660.9726502129157,420.8712946788927 L660.9800225011305,390.1529407505757 M660.9800225011305,390.1529407505757 L654.6191327620284,356.65108038143944 M654.6191327620284,356.65108038143944 L642.2594938547686,322.31321202443905 M642.2594938547686,322.31321202443905 L624.6194880383722,289.1355767091833 M624.6194880383722,289.1355767091833 L602.7246319578907,259.0470319094834 M602.7246319578907,259.0470319094834 L577.8478498477796,233.79673178115783 M577.8478498477796,233.79673178115783 L551.4354257986794,214.85239957988819 M460.45189071811217,394.7976919435861 L492.9545715235214,415.61907623799334 M492.9545715235214,415.61907623799334 L512.9547711883758,436.2150431395892 M512.9547711883758,436.2150431395892 L524.9862187990811,458.0321633839392 M524.9862187990811,458.0321633839392 L528.2778551161246,470.07486549137394 M528.2778551161246,470.07486549137394 L529.3898331977613,482.42560507940175 M529.3898331977613,482.42560507940175 L526.5900928824029,502.1178346843233 M526.5900928824029,502.1178346843233 L518.4960113404842,521.1295336037562 M518.4960113404842,521.1295336037562 L505.8205657405716,538.8466445827769 M505.8205657405716,538.8466445827769 L489.3281455611748,554.9699343834284 M489.3281455611748,554.9699343834284 L469.6504929625487,569.3963559325584 M469.6504929625487,569.3963559325584 L442.415592838467,584.4556498280798 M442.415592838467,584.4556498280798 L411.9560644628707,596.9217708428025 M183.61342324807083,427.21099272189184 L234.49842056620918,361.23089024091996 M234.49842056620918,361.23089024091996 L282.13295231946967,319.1515087818732 M282.13295231946967,319.1515087818732 L323.8814554179683,294.6948235660114 M323.8814554179683,294.6948235660114 L357.8517351332988,283.5882431103033 M357.8517351332988,283.5882431103033 L384.53851608038633,281.4921084364202 M384.53851608038633,281.4921084364202 L402.6486263011626,284.4124641967818 M402.6486263011626,284.4124641967818 L419.0331174580681,291.2821664618176 M411.9560644628707,596.9217708428025 L390.7658856673189,598.6446817170572 M390.7658856673189,598.6446817170572 L367.5428786246297,598.4334220129276 M367.5428786246297,598.4334220129276 L348.14903749257303,597.6392429452377 M348.14903749257303,597.6392429452377 L330.7440632097574,597.1010523755065 M183.61342324807083,427.21099272189184 L225.2894195390963,446.27463298412687 M225.2894195390963,446.27463298412687 L238.73176219390263,454.8310360631031 M238.73176219390263,454.8310360631031 L251.3818176257244,466.4861386574024 M251.3818176257244,466.4861386574024 L263.4497606836827,480.1520757793353 M263.4497606836827,480.1520757793353 L275.0789884186716,495.0500130654349 M275.0789884186716,495.0500130654349 L286.24051142847486,510.5347155737029 M286.24051142847486,510.5347155737029 L296.76804871916556,526.0385824335127 M296.76804871916556,526.0385824335127 L306.39577316867604,541.061234047211 M306.39577316867604,541.061234047211 L314.79797365025263,555.1769887204839 M314.79797365025263,555.1769887204839 L321.63155259214625,568.0372013053436 M321.63155259214625,568.0372013053436 L326.60723370946477,579.3747619605633 M326.60723370946477,579.3747619605633 L329.6042339679482,589.0546739133558 M329.6042339679482,589.0546739133558 L330.7440632097574,597.1010523755065 M419.0331174580681,291.2821664618176 L415.44244469262617,292.84109229383273 M415.44244469262617,292.84109229383273 L412.1877159775863,293.282441519529 M412.1877159775863,293.282441519529 L409.49490671056185,292.7334483975581 M409.49490671056185,292.7334483975581 L407.25044522094856,291.26716001091285 M407.25044522094856,291.26716001091285 L405.61266748714314,288.9994439400778 M405.61266748714314,288.9994439400778 L404.6275494842261,286.0556314309847 M404.6275494842261,286.0556314309847 L404.3213375839247,282.7822752459896 M404.3213375839247,282.7822752459896 L418.6135638640254,293.67664704511174 M418.6135638640254,293.67664704511174 L430.2866865609087,308.11323395922244 M430.2866865609087,308.11323395922244 L439.167427421464,325.4087287425191 M439.167427421464,325.4087287425191 L445.3136853256792,344.9258261603184 M445.3136853256792,344.9258261603184 L448.88383666472896,366.1722731102476 M448.88383666472896,366.1722731102476 L450.04230229999007,388.78509538227706 M460.45189071811217,394.7976919435861 L456.6295136781671,393.92643086198206 M456.6295136781671,393.92643086198206 L453.5513796126079,392.7502666174895 M453.5513796126079,392.7502666174895 L451.37806895044275,391.3305194570716 M451.37806895044275,391.3305194570716 L450.3791224084956,390.09039023858077 M450.3791224084956,390.09039023858077 L450.04230229999007,388.78509538227706 M551.4318502281764,236.09197474332694 L529.4215608085834,226.47714826279253 M529.4215608085834,226.47714826279253 L508.6903123514469,223.5930100765461 M508.6903123514469,223.5930100765461 L490.44295163983827,227.6067482204002 M490.44295163983827,227.6067482204002 L475.73980157696883,238.28463636265354 M475.73980157696883,238.28463636265354 L465.4350563057309,255.0056735926471 M465.4350563057309,255.0056735926471 L460.1272363273662,276.79781506247036 M460.1272363273662,276.79781506247036 L460.12445527946875,302.3945020337558 M460.12445527946875,302.3945020337558 L465.4266135473987,330.3082962447221 M465.4266135473987,330.3082962447221 L475.72546388004446,358.917296748558 M475.72546388004446,358.917296748558 L490.4225315044156,386.55930695986183 M490.4225315044156,386.55930695986183 L508.6639126932987,411.6283409662964 M508.6639126932987,411.6283409662964 L529.3898172360394,432.6678562571024 M529.3898172360394,432.6678562571024 L551.3960999843824,448.45528558753574 M551.3960999843824,448.45528558753574 L573.4041527162607,458.0730921591523 M573.4041527162607,458.0730921591523 L594.1351393751021,460.96206084377775 M594.1351393751021,460.96206084377775 L612.384273152207,456.95389699369815 M612.384273152207,456.95389699369815 L627.0908249566097,446.28104993880885 M627.0908249566097,446.28104993880885 L637.3998213482528,429.5633657380488 M637.3998213482528,429.5633657380488 L642.711767944148,407.77212109934237 M642.711767944148,407.77212109934237 L642.7176057492901,382.17366930847186 M642.7176057492901,382.17366930847186 L637.416734111827,354.255852926238 M637.416734111827,354.255852926238 L627.1171055299654,325.6414943300289 M627.1171055299654,325.6414943300289 L612.4173730671746,297.99401758008605 M612.4173730671746,297.99401758008605 L594.1720509301911,272.92066090743276 M594.1720509301911,272.92066090743276 L573.4418321551807,251.87895709073376 M573.4418321551807,251.87895709073376 L551.4318502281764,236.09197474332694 M460.4546841811931,406.81915063655987 L459.2967810841211,405.52376828841363 M459.2967810841211,405.52376828841363 L458.7750970244597,403.37230217715165 M458.7750970244597,403.37230217715165 L458.9168741386867,400.47748032676594 M458.9168741386867,400.47748032676594 L459.4905978552059,397.7770350178581 M459.4905978552059,397.7770350178581 L460.45189071811217,394.7976919435861 M460.4546841811931,406.81915063655987 L492.9583734265508,429.9897672043567 M492.9583734265508,429.9897672043567 L512.9593269254642,452.02782934913023 M512.9593269254642,452.02782934913023 L524.9912665471142,474.70814985275126 M524.9912665471142,474.70814985275126 L528.2830378979594,486.9860616119541 M528.2830378979594,486.9860616119541 L529.3950649830007,499.41632579320907 M529.3898331977613,482.42560507940175 L526.2444274418993,484.75575599494385 M526.2444274418993,484.75575599494385 L524.234843442986,487.3537591317471 M524.234843442986,487.3537591317471 L523.3638807996034,489.96029692552196 M523.3638807996034,489.96029692552196 L523.5114930469056,492.63720178666557 M523.5114930469056,492.63720178666557 L524.6565039059163,495.18941694531117 M524.6565039059163,495.18941694531117 L526.7133613213108,497.51446041610944 M526.7133613213108,497.51446041610944 L529.3950649830007,499.41632579320907 M529.3950649830007,499.41632579320907 L526.5952016981174,518.9093142196828 M526.5952016981174,518.9093142196828 L518.5007722652529,537.342066916618 M518.5007722652529,537.342066916618 L505.8248053043061,554.147894941874 M505.8248053043061,554.147894941874 L489.33175097873254,569.0812409991292 M489.33175097873254,569.0812409991292 L469.6534084273194,582.0855396030873 M469.6534084273194,582.0855396030873 L442.4176740746591,595.1759881100387 M442.4176740746591,595.1759881100387 L411.9573789956561,605.440921565742 M411.9573789956561,605.440921565742 L411.4728396054561,601.7327764481647 M411.4728396054561,601.7327764481647 L411.47239465078314,598.8372627839203 M411.47239465078314,598.8372627839203 L411.9560644628707,596.9217708428025 M183.61342324807083,427.21099272189184 L183.61342324807083,427.21099272189184 M183.61342324807083,427.21099272189184 L229.33577871756057,358.2494941536405 M229.33577871756057,358.2494941536405 L273.2010654518575,313.99245661766383 M273.2010654518575,313.99245661766383 L312.3174714683971,288.0146255115816 M312.3174714683971,288.0146255115816 L344.62492074795347,275.9468593603291 M344.62492074795347,275.9468593603291 L370.36860066950953,273.30550233775216 M370.36860066950953,273.30550233775216 L388.0749663713312,275.9924304446978 M388.0749663713312,275.9924304446978 L404.3213375839247,282.7822752459896 M407.1107947168016,602.1322227042767 L409.29996169083745,599.13969382082 M409.29996169083745,599.13969382082 L411.9560644628707,596.9217708428025 M407.1107947168016,602.1322227042767 L385.122073034108,602.6695699867886 M385.122073034108,602.6695699867886 L361.0265937637931,600.6589673076764 M361.0265937637931,600.6589673076764 L345.28753740384445,598.7669407595929 M345.28753740384445,598.7669407595929 L330.7440632097574,597.1010523755065 M330.7440632097574,597.1010523755065 L330.7440632097574,597.1010523755065 M183.61342324807083,427.21099272189184 L183.61342324807083,427.21099272189184 M183.61342324807083,427.21099272189184 L220.95275025431692,453.7659517515344 M225.2894195390963,446.27463298412687 L223.3827924434433,450.171365219495 M223.3827924434433,450.171365219495 L220.95275025431692,453.7659517515344 M220.95275025431692,453.7659517515344 L233.50205696315186,462.4860927083072 M233.50205696315186,462.4860927083072 L245.2178464204182,473.8609166086479 M245.2178464204182,473.8609166086479 L256.5836764674682,486.9891443741928 M256.5836764674682,486.9891443741928 L267.748639805898,501.1552073932326 M267.748639805898,501.1552073932326 L278.70259143445503,515.771548199218 M278.70259143445503,515.771548199218 L289.31036357205187,530.325614414141 M289.31036357205187,530.325614414141 L299.3425637168863,544.3698534225342 M299.3425637168863,544.3698534225342 L308.50774566408603,557.5317378364755 M308.50774566408603,557.5317378364755 L318.81918621212367,573.2170645634159 M318.81918621212367,573.2170645634159 L326.32672381135086,586.405244492395 M326.32672381135086,586.405244492395 L330.7440632097574,597.1010523755065 M330.7440632097574,597.1010523755065 L330.7440632097574,597.1010523755065 M220.95275025431692,453.7659517515344 L190.15886248477517,466.1197054499726 M190.15886248477517,466.1197054499726 L165.35698198299508,482.35819662612596 M165.35698198299508,482.35819662612596 L147.97925672031678,501.5442455414593 M147.97925672031678,501.5442455414593 L139.02948380102407,522.5704123429684 M139.02948380102407,522.5704123429684 L139.0250963947152,544.222859865873 M139.0250963947152,544.222859865873 L147.96709318530162,565.2513740736431 M147.96709318530162,565.2513740736431 L165.33981103750676,584.4415834741101 M165.33981103750676,584.4415834741101 L190.1405926567773,600.6851011864915 M190.1405926567773,600.6851011864915 L220.9375402046952,613.0436033086858 M220.9375402046952,613.0436033086858 L183.59503025762217,554.6413685628754 M450.04230229999007,388.78509538227706 L446.1134523261378,388.6712045592437 M446.1134523261378,388.6712045592437 L436.73261252601685,392.6352364862632 M436.73261252601685,392.6352364862632 L424.30293676290194,399.01918507216317 M424.30293676290194,399.01918507216317 L409.556992945445,407.2081897256214 M409.556992945445,407.2081897256214 L391.9256693438607,417.46358411431504 M391.9256693438607,417.46358411431504 L372.25970815858716,429.2866475296378 M372.25970815858716,429.2866475296378 L351.4650736176538,442.1129556896496 M351.4650736176538,442.1129556896496 L330.2287876910014,455.4912262840584 M330.2287876910014,455.4912262840584 L308.97940646835116,469.1240139011842 M308.97940646835116,469.1240139011842 L281.08708815941327,487.36401464616523 M281.08708815941327,487.36401464616523 L250.89833712141484,507.54660647334845 M250.89833712141484,507.54660647334845 L222.70575065087843,526.8547938481242 M222.70575065087843,526.8547938481242 L202.02013743244157,541.3714623596666 M202.02013743244157,541.3714623596666 L183.59503025762217,554.6413685628754 M404.33850742698337,44.84021192069332 L404.3213375839247,282.7822752459896 M404.33850742698337,44.84021192069332 L427.54894297120666,61.93295912389851 M427.54894297120666,61.93295912389851 L442.9972001109686,81.73472588876734 M442.9972001109686,81.73472588876734 L449.78497446837093,103.09503029536893 M449.78497446837093,103.09503029536893 L447.5170841153026,124.77265373081053 M447.5170841153026,124.77265373081053 L436.32457786254474,145.50770435236325 M436.32457786254474,145.50770435236325 L416.8573105857462,164.09489813363786 M416.8573105857462,164.09489813363786 L390.24629704779124,179.45363186487504 M390.24629704779124,179.45363186487504 L358.03807713390637,190.6908745315747 M358.03807713390637,190.6908745315747 L322.104822530547,197.15317474504997 M322.104822530547,197.15317474504997 L284.53544840609175,198.4647162284744 M284.53544840609175,198.4647162284744 L247.51412365369657,194.54922759288365 M247.51412365369657,194.54922759288365 L213.19307910488135,185.63441533122148 M213.19307910488135,185.63441533122148 L183.56742927249672,172.2387062650046 M183.56742927249672,172.2387062650046 L160.35910158965595,155.1410240747146 M160.35910158965595,155.1410240747146 L144.91668514429065,135.33545286961225 M144.91668514429065,135.33545286961225 L138.13714628220157,113.97334612025509 M138.13714628220157,113.97334612025509 L140.41378028259237,92.29633533442654 M140.41378028259237,92.29633533442654 L151.61353526438307,71.56417200383055 M151.61353526438307,71.56417200383055 L171.08489575908862,52.981478711420266 M171.08489575908862,52.981478711420266 L197.69590929710301,37.627827660140724 M197.69590929710301,37.627827660140724 L229.90003599314832,26.39508548327035 M229.90003599314832,26.39508548327035 L265.8260418674328,19.935672562036302 M265.8260418674328,19.935672562036302 L303.38667234445006,18.624743727637963 M303.38667234445006,18.624743727637963 L340.3997616014431,22.538430019831537 M340.3997616014431,22.538430019831537 L374.71496545587604,31.449437840177836 M374.71496545587604,31.449437840177836 L404.33850742698337,44.84021192069332 M460.4546841811931,406.81915063655987 L460.4546841811931,406.81915063655987 M460.4546841811931,406.81915063655987 L456.6325394665006,403.98484993715545 M456.6325394665006,403.98484993715545 L453.5534232924981,400.35610603659444 M453.5534232924981,400.35610603659444 L451.3783105122569,396.123095643888 M451.3783105122569,396.123095643888 L450.3789782435215,392.5141150180321 M450.3789782435215,392.5141150180321 L450.04230229999007,388.78509538227706 M551.4318502281764,236.09197474332694 L404.3185786427475,321.01606422430666 M404.3185786427475,321.01606422430666 L426.3288580911411,336.80604067780564 M426.3288580911411,336.80604067780564 L447.05995076816396,357.8509077125679 M447.05995076816396,357.8509077125679 L465.30667235987255,382.92741281310145 M465.30667235987255,382.92741281310145 L480.0082484456984,410.57784013163496 M480.0082484456984,410.57784013163496 L490.3100576161245,439.19477986182386 M490.3100576161245,439.19477986182386 L495.61332003223845,467.1146578534237 M495.61332003223845,467.1146578534237 L495.6099442255892,492.71453186972917 M495.6099442255892,492.71453186972917 L490.30038776539925,514.5064766952172 M490.30038776539925,514.5064766952172 L479.993570767754,531.2240983979486 M479.993570767754,531.2240983979486 L465.2888610051788,541.8961239862565 M465.2888610051788,541.8961239862565 L447.04112492209856,545.902755240277 M447.04112492209856,545.902755240277 L426.31101043595163,543.0116319942149 M426.31101043595163,543.0116319942149 L404.30325370500196,533.3911741768727 M404.30325370500196,533.3911741768727 L382.2966735980396,517.6007510216375 M382.2966735980396,517.6007510216375 L361.5698956037562,496.55807329251576 M361.5698956037562,496.55807329251576 L343.327115595121,471.4858919577749 M343.327115595121,471.4858919577749 L328.6282050217264,443.8409323453818 M328.6282050217264,443.8409323453818 L318.3271746591588,415.22935167553425 M318.3271746591588,415.22935167553425 L313.0226259278728,387.31349640188733 M313.0226259278728,387.31349640188733 L313.02294497699455,361.7153872053303 M313.02294497699455,361.7153872053303 L318.32837450385813,339.9225450023294 M318.32837450385813,339.9225450023294 L328.63093982213434,323.20156930258145 M328.63093982213434,323.20156930258145 L343.3322471690966,312.5245014594478 M343.3322471690966,312.5245014594478 L361.578209551908,308.5122948119634 M361.578209551908,308.5122948119634 L382.3085853863037,311.39858677965424 M382.3085853863037,311.39858677965424 L404.3185786427475,321.01606422430666 M529.3950649830007,499.41632579320907 L661.8628537177984,575.8838946833839 M661.8628537177984,575.8838946833839 L658.6493016728003,608.2329687548254 M658.6493016728003,608.2329687548254 L649.2102416976658,642.4049077404568 M649.2102416976658,642.4049077404568 L634.0942656866638,676.4143544251417 M634.0942656866638,676.4143544251417 L614.1796330205667,708.2855064244839 M614.1796330205667,708.2855064244839 L590.623301097542,736.1667253023811 M590.623301097542,736.1667253023811 L564.793750946159,758.4380838372163 M564.793750946159,758.4380838372163 L538.1915916687273,773.8053642472371 M538.1915916687273,773.8053642472371 L512.3624724072642,781.3752562723621 M512.3624724072642,781.3752562723621 L488.8073269353458,780.7073309636914 M488.8073269353458,780.7073309636914 L468.8951866869894,771.8397355820787 M468.8951866869894,771.8397355820787 L453.7836113818338,755.2871610657403 M453.7836113818338,755.2871610657403 L444.3513085316988,732.0110425295272 M444.3513085316988,732.0110425295272 L441.14697668123506,703.3638412396392 M441.14697668123506,703.3638412396392 L444.3573087164474,671.010474416614 M444.3573087164474,671.010474416614 L453.7959939711649,636.8315755825877 M453.7959939711649,636.8315755825877 L468.91452639698025,602.8140963704993 M468.91452639698025,602.8140963704993 L488.8340609706165,570.9356793163881 M488.8340609706165,570.9356793163881 L512.3965173240189,543.0496271988202 M512.3965173240189,543.0496271988202 L538.2320113956932,520.7769744723698 M538.2320113956932,520.7769744723698 L564.8385724033842,505.4122354025677 M564.8385724033842,505.4122354025677 L590.6695428213075,497.8481380587966 M590.6695428213075,497.8481380587966 L614.223564798986,498.52378389891464 M614.223564798986,498.52378389891464 L634.131864279688,507.3992569845616 M634.131864279688,507.3992569845616 L649.2377614200624,523.9580616850163 M649.2377614200624,523.9580616850163 L658.6638495054027,547.2373356285801 M658.6638495054027,547.2373356285801 L661.8628537177984,575.8838946833839 M411.9573789956561,605.440921565742 L390.7687560132732,622.323230018002 M390.7687560132732,622.323230018002 L367.54615600667097,633.2684514025798 M367.54615600667097,633.2684514025798 L348.1518637055829,638.0799095159853 M348.1518637055829,638.0799095159853 L330.74610653478186,639.5813829081233 M330.74610653478186,639.5813829081233 L330.444250718831,642.921429085723 M330.444250718831,642.921429085723 L325.8145234119008,655.8990205691571 M325.8145234119008,655.8990205691571 L318.47083855433124,663.9291642654148 M318.47083855433124,663.9291642654148 L305.6734419067209,669.0595918442857 M305.6734419067209,669.0595918442857 L293.86666523089633,668.4488946729371 M293.86666523089633,668.4488946729371 L280.87248323782455,663.5294708809656 M280.87248323782455,663.5294708809656 L267.0913709052411,654.3119546463699 M267.0913709052411,654.3119546463699 L252.25463114835776,640.6693596303498 M252.25463114835776,640.6693596303498 L239.18744116845147,626.4681472842396 M239.18744116845147,626.4681472842396 L225.2746633961836,610.5556054927124 M225.2746633961836,610.5556054927124 L183.59503025762217,554.6413685628754 M460.4546841811931,406.81915063655987 L458.58855824732996,410.2788837694739 M458.58855824732996,410.2788837694739 L450.4651245835829,416.42093871052714 M450.4651245835829,416.42093871052714 L438.72157898243063,423.9934059858526 M438.72157898243063,423.9934059858526 L424.2566886520309,432.66928429022005 M424.2566886520309,432.66928429022005 L406.55956680998554,442.81076725821885 M406.55956680998554,442.81076725821885 L386.4875008774992,453.93045436608526 M386.4875008774992,453.93045436608526 L364.98229244343855,465.5259820629175 M364.98229244343855,465.5259820629175 L342.77823605692197,477.22799466688673 M342.77823605692197,477.22799466688673 L320.3472225900495,488.81408455262556 M320.3472225900495,488.81408455262556 L290.6047813595557,503.84952774237183 M290.6047813595557,503.84952774237183 L258.0318036982203,519.9024419395565 M258.0318036982203,519.9024419395565 L227.21416917476387,534.6638291377296 M227.21416917476387,534.6638291377296 L204.29960709934596,545.3197361014954 M204.29960709934596,545.3197361014954 L183.59503025762217,554.6413685628754 M407.1107947168016,602.1322227042767 L409.30061953415236,603.5012001662863 M409.30061953415236,603.5012001662863 L411.9573789956561,605.440921565742 M407.1107947168016,602.1322227042767 L407.1107947168016,602.1322227042767 M407.1107947168016,602.1322227042767 L385.1240836660888,620.6392881229576 M385.1240836660888,620.6392881229576 L361.02935125128806,632.675804905407 M361.02935125128806,632.675804905407 L345.2900849376225,637.253136878601 M345.2900849376225,637.253136878601 L330.74610653478186,639.5813829081233 M330.7440632097574,597.1010523755065 L338.00690816225193,602.3597132918512 M338.00690816225193,602.3597132918512 L343.0613018395614,608.4197911947952 M343.0613018395614,608.4197911947952 L345.6537565919465,614.9774384806135 M345.6537565919465,614.9774384806135 L345.65421127461633,621.7038464749985 M345.65421127461633,621.7038464749985 L343.0625758318303,628.2617215973746 M343.0625758318303,628.2617215973746 L338.008749134447,634.3222100476291 M338.008749134447,634.3222100476291 L330.74610653478186,639.5813829081233 M330.74610653478186,639.5813829081233 L329.60820842622553,642.8053827225613 M329.60820842622553,642.8053827225613 L321.23624122480464,655.8784273327681 M321.23624122480464,655.8784273327681 L311.2307859141069,663.4666554917114 M311.2307859141069,663.4666554917114 L295.8154832156178,667.4626531735412 M295.8154832156178,667.4626531735412 L283.38455876779494,665.8854742154297 M283.38455876779494,665.8854742154297 L270.3161435241676,660.346159995755 M270.3161435241676,660.346159995755 L254.46709679208482,648.867374662072 M254.46709679208482,648.867374662072 L239.38993770225323,633.9695323435415 M239.38993770225323,633.9695323435415 L230.45731160797652,623.9668156543135 M230.45731160797652,623.9668156543135 L220.9375402046952,613.0436033086858 M330.7440632097574,597.1010523755065 L320.5889678706075,592.5371238585559 M320.5889678706075,592.5371238585559 L308.804486842429,589.5523427947758 M308.804486842429,589.5523427947758 L296.11176525034335,588.3293358280397 M296.11176525034335,588.3293358280397 L283.2875026907503,588.9429345449524 M283.2875026907503,588.9429345449524 L271.1164532403378,591.3555954416264 M271.1164532403378,591.3555954416264 L260.3434037525878,595.4196968656584 M260.3434037525878,595.4196968656584 L251.6276216629799,600.8865648448613 M251.6276216629799,600.8865648448613 L245.5025193602105,607.4216840088548 M245.5025193602105,607.4216840088548 L242.34299769196338,614.6251497079897 M242.34299769196338,614.6251497079897 L242.3424960852301,622.0561417697568 M242.3424960852301,622.0561417697568 L245.50113545381618,629.2598831861458 M245.50113545381618,629.2598831861458 L251.62568905085595,635.7954873223805 M251.62568905085595,635.7954873223805 L260.34138829592604,641.2629326248671 M260.34138829592604,641.2629326248671 L271.1148407698131,645.3275645581996 M271.1148407698131,645.3275645581996 L283.28668189635056,647.7405812695247 M283.28668189635056,647.7405812695247 L296.111933986829,648.3542753364168 M296.111933986829,648.3542753364168 L308.8056044352942,647.1310802706123 M308.8056044352942,647.1310802706123 L320.59076492141713,644.1458730006223 M320.59076492141713,644.1458730006223 L330.74610653478186,639.5813829081233 M220.9375402046952,613.0436033086858 L223.3678965552877,611.5290473297905 M223.3678965552877,611.5290473297905 L225.2746633961836,610.5556054927124 M183.59503025762217,554.6413685628754 L183.59503025762217,554.6413685628754 M183.59503025762217,554.6413685628754 L183.59503025762217,554.6413685628754 M385.94372883125624,55.45513085157228 L361.2573033098897,44.295808143700526 M361.2573033098897,44.295808143700526 L332.66089016787896,36.86970839157283 M332.66089016787896,36.86970839157283 L301.81607440346875,33.60817633781761 M301.81607440346875,33.60817633781761 L270.5149499784839,34.70066167346829 M270.5149499784839,34.70066167346829 L240.5761011484576,40.083702001440315 M240.5761011484576,40.083702001440315 L213.73904248017618,49.44463250813641 M213.73904248017618,49.44463250813641 L191.56319781946388,62.239694600660414 M191.56319781946388,62.239694600660414 L175.33734897539756,77.72558609097666 M175.33734897539756,77.72558609097666 L166.0047304503454,95.0025935710886 M166.0047304503454,95.0025935710886 L164.1081389777134,113.06680712874748 M164.1081389777134,113.06680712874748 L169.7583295742408,130.8684392697104 M169.7583295742408,130.8684392697104 L182.62740831782196,147.3728202391228 M182.62740831782196,147.3728202391228 L201.96783075976066,161.62054257977866 M201.96783075976066,161.62054257977866 L226.65572007240792,172.78329236160351 M226.65572007240792,172.78329236160351 L255.2561892534398,180.21203408533188 M255.2561892534398,180.21203408533188 L286.1067241121797,183.4748177670544 M286.1067241121797,183.4748177670544 L317.41392051277,182.38190697988466 M317.41392051277,182.38190697988466 L347.3578031841771,176.99686158946614 M347.3578031841771,176.99686158946614 L374.1977043653469,167.6328057426985 M374.1977043653469,167.6328057426985 L396.3735490260305,154.8342140112171 M396.3735490260305,154.8342140112171 L412.59655535717593,139.3451971810781 M412.59655535717593,139.3451971810781 L421.92414004086766,122.06618463746639 M421.92414004086766,122.06618463746639 L423.81465953794975,104.00154562893636 M423.81465953794975,104.00154562893636 L418.1587498471356,86.20116511500532 M418.1587498471356,86.20116511500532 L405.28561506452644,69.69942611856061 M405.28561506452644,69.69942611856061 L385.94372883125624,55.45513085157228 M643.4726743561516,586.5056003515917 L640.7949422330028,613.4634559336923 M640.7949422330028,613.4634559336923 L632.9290790594657,641.9405566764071 M632.9290790594657,641.9405566764071 L620.3322548780203,670.282323316445 M620.3322548780203,670.282323316445 L603.7363895162873,696.8421130439854 M603.7363895162873,696.8421130439854 L584.1056877038741,720.0768061405834 M584.1056877038741,720.0768061405834 L562.580649160365,738.6363635941948 M562.580649160365,738.6363635941948 L540.4118774672156,751.4422542005391 M540.4118774672156,751.4422542005391 L518.8874821383042,757.7500939768659 M518.8874821383042,757.7500939768659 L499.2582722504766,757.1929450338598 M499.2582722504766,757.1929450338598 L482.66509094915546,749.8027406525209 M482.66509094915546,749.8027406525209 L470.0725058751648,736.0084924934126 M470.0725058751648,736.0084924934126 L462.21267930397903,716.6115129352993 M462.21267930397903,716.6115129352993 L459.5427772161173,692.7388889229655 M459.5427772161173,692.7388889229655 L462.2182732202473,665.7780522642036 M462.2182732202473,665.7780522642036 L470.08387617323,637.2961182931169 M470.08387617323,637.2961182931169 L482.6824756423631,608.9487735084847 M482.6824756423631,608.9487735084847 L499.2817451063619,582.3839386059677 M499.2817451063619,582.3839386059677 L518.9166999949047,559.1458890906151 M518.9166999949047,559.1458890906151 L540.4458662610119,540.58543289235 M540.4458662610119,540.58543289235 L562.6176947113772,527.7813071056403 M562.6176947113772,527.7813071056403 L584.1433755656544,521.477491414174 M584.1433755656544,521.477491414174 L603.7718052485618,522.0400018390387 M603.7718052485618,522.0400018390387 L620.362319350786,529.435676846533 M620.362319350786,529.435676846533 L632.950961254528,543.234251522606 M632.950961254528,543.234251522606 L640.8064720156971,562.633422336617 M640.8064720156971,562.633422336617 L643.4726743561516,586.5056003515917 M330.74610653478186,639.5813829081233 L330.74610653478186,639.5813829081233 M330.74610653478186,639.5813829081233 L330.74610653478186,639.5813829081233 M385.94372883125624,55.45513085157228 L385.9341466868508,214.80063278708096 M385.9341466868508,214.80063278708096 L361.25029296695936,203.64014579893558 M361.25029296695936,203.64014579893558 L332.65685884122223,196.21327124428035 M332.65685884122223,196.21327124428035 L301.8152562492585,192.95139889364566 M301.8152562492585,192.95139889364566 L270.5173925174313,194.04399821572898 M270.5173925174313,194.04399821572898 L240.5816625102114,199.4276001881944 M240.5816625102114,199.4276001881944 L213.74739962857205,208.7895073574183 M213.74739962857205,208.7895073574183 L191.57386528857876,221.5859043702119 M191.57386528857876,221.5859043702119 L175.34970703163822,237.07341145772313 M175.34970703163822,237.07341145772313 L166.0180610582998,254.35222131968092 M166.0180610582998,254.35222131968092 L164.12166749234922,272.41831929550506 M164.12166749234922,272.41831929550506 L169.77126973941478,290.22180837567964 M169.77126973941478,290.22180837567964 L182.63900796973644,306.7279108871231 M182.63900796973644,306.7279108871231 L201.97741556677,320.9771193221055 M201.97741556677,320.9771193221055 L226.66273277295676,332.1410333846278 M226.66273277295676,332.1410333846278 L255.2602220926276,339.5705499112109 M255.2602220926276,339.5705499112109 L286.1075425873313,342.83367388996805 M286.1075425873313,342.83367388996805 L317.4114770296506,341.7406491163126 M317.4114770296506,341.7406491163126 L347.35223982943586,336.35504208115276 M347.35223982943586,336.35504208115276 L374.1893446317179,326.9900095714704 M374.1893446317179,326.9900095714704 L396.3628789716826,314.1900829192824 M396.3628789716826,314.1900829192824 L412.58419530794777,298.69945049156155 M412.58419530794777,298.69945049156155 L421.91080848874117,281.41863556585594 M421.91080848874117,281.41863556585594 L423.8011313442554,263.3521121391078 M423.8011313442554,263.3521121391078 L418.1458111944927,245.5498746861202 M418.1458111944927,245.5498746861202 L405.27401777023044,229.0464141479713 M405.27401777023044,229.0464141479713 L385.9341466868508,214.80063278708096 M643.4726743561516,586.5056003515917 L496.2878730546331,501.54021644730284 M496.2878730546331,501.54021644730284 L493.61922378569466,477.66910742542524 M493.61922378569466,477.66910742542524 L485.7614079887653,458.2702577283225 M485.7614079887653,458.2702577283225 L473.1707369407401,444.4712375657366 M473.1707369407401,444.4712375657366 L456.5785875669786,437.07437626273065 M456.5785875669786,437.07437626273065 L436.94901157803645,436.5100075777605 M436.94901157803645,436.5100075777605 L415.42274005127,442.8114009561827 M415.42274005127,442.8114009561827 L393.2509109161946,455.61268110639685 M393.2509109161946,455.61268110639685 L371.72233399298085,474.170033723063 M371.72233399298085,474.170033723063 L352.08852419802804,497.4049021269738 M352.08852419802804,497.4049021269738 L335.4908889807646,523.9666633460538 M335.4908889807646,523.9666633460538 L322.8943178783107,552.3112206064757 M322.8943178783107,552.3112206064757 L315.03101947584054,580.7908153064371 M315.03101947584054,580.7908153064371 L312.3579702354549,607.749896965397 M312.3579702354549,607.749896965397 L315.03031908944575,631.621452266475 M315.03031908944575,631.621452266475 L322.8924502459702,651.0181114883223 M322.8924502459702,651.0181114883223 L335.48706382894295,664.81280623455 M335.48706382894295,664.81280623455 L352.0818797271594,672.2041980798358 M352.0818797271594,672.2041980798358 L371.71223536159175,672.763206251537 M371.71223536159175,672.763206251537 L393.2372210469332,666.4577893351054 M393.2372210469332,666.4577893351054 L415.4059934245098,653.6547443650934 M415.4059934245098,653.6547443650934 L436.9304429406826,635.09828994594 M436.9304429406826,635.09828994594 L456.5600002186144,611.8667769920085 M456.5600002186144,611.8667769920085 L473.15423200818555,585.3100597794304 M473.15423200818555,585.3100597794304 L485.74902845845395,556.9710795631125 M485.74902845845395,556.9710795631125 L493.6125875323238,528.496317311125 M493.6125875323238,528.496317311125 L496.2878730546331,501.54021644730284" stroke="black"  stroke-width="4"  fill="red"/></svg>